# xmcd
#
# Track frame offsets: 
#        150
#        16236
#        32916
#        48664
#        63917
#        80890
#        93132
#        105827
#        122430
#        137564
#        154801
#        169793
#
# Disc length: 2500 seconds
#
# Revision: 6
# Processed by: cddbd v1.5.2PL0 Copyright (c) Steve Scherf et al.
# Submitted via: ExactAudioCopy v1.0b3
#
DISCID=8f09c20c
DTITLE=少女時代 - GIRLS' GENERATION
DYEAR=2011
DGENRE=Pop
TTITLE0=MR.TAXI
TTITLE1=GENIE
TTITLE2=you-aholic
TTITLE3=Run Devil Run
TTITLE4=BAD GIRL
TTITLE5=Beautiful Stranger
TTITLE6=I'm In Love With The HERO
TTITLE7=Let It Rain
TTITLE8=Gee
TTITLE9=THE GREAT ESCAPE
TTITLE10=HOOT
TTITLE11=BORN TO BE A LADY
EXTD=YEAR: 2011
EXTT0=
EXTT1=
EXTT2=
EXTT3=
EXTT4=
EXTT5=
EXTT6=
EXTT7=
EXTT8=
EXTT9=
EXTT10=
EXTT11=
PLAYORDER=
